<svg width="19" height="20" viewBox="0 0 19 20" fill="none" xmlns="http://www.w3.org/2000/svg">
<ellipse cx="9.31663" cy="9.70346" rx="9.31663" ry="9.70346" fill="#FF5900"/>
<path d="M9.94336 6.54688V15H8.49023V6.54688H9.94336ZM8.38086 4.30469C8.38086 4.07031 8.45117 3.8724 8.5918 3.71094C8.73763 3.54948 8.95117 3.46875 9.23242 3.46875C9.50846 3.46875 9.7194 3.54948 9.86523 3.71094C10.0163 3.8724 10.0918 4.07031 10.0918 4.30469C10.0918 4.52865 10.0163 4.72135 9.86523 4.88281C9.7194 5.03906 9.50846 5.11719 9.23242 5.11719C8.95117 5.11719 8.73763 5.03906 8.5918 4.88281C8.45117 4.72135 8.38086 4.52865 8.38086 4.30469Z" fill="white"/>
</svg>
