<svg width="69" height="73" viewBox="0 0 69 73" fill="none" xmlns="http://www.w3.org/2000/svg">
<path d="M34.5 40.2861C43.1158 40.2861 51.0278 42.5914 57.2608 46.4398L69 34.6497L34.5 0L0 34.6497L11.7392 46.4398C17.9722 42.5914 25.8842 40.2861 34.5 40.2861Z" fill="#FF5900"/>
<path d="M13 47.9389L34.5 70L56 47.9389C50.1123 44.2248 42.6385 42 34.5 42C26.3615 42 18.8877 44.2248 13 47.9389Z" fill="#FF5900"/>
<g clip-path="url(#clip0_356_10877)">
<path fill-rule="evenodd" clip-rule="evenodd" d="M24.9325 23.8824C24.931 23.8802 24.929 23.8773 24.9285 23.8763Z" fill="#F9F9F9"/>
<path d="M41.1605 10.2099L44.5905 12.2289L45.1221 12.5418C45.2039 12.7851 45.4258 13.0342 45.6244 13.2543C45.6588 13.2884 45.6962 13.3318 45.7299 13.3708C45.7421 13.3849 45.7538 13.3984 45.7646 13.4108C45.6011 13.7931 44.9293 15.114 44.8125 15.2646C44.6356 15.4501 44.409 15.6413 44.1699 15.843L44.0957 15.9056L44.059 15.9366C43.6326 16.29 43.2003 16.6492 42.9258 17.0316C42.9148 17.0316 42.9037 17.0303 42.8921 17.0289C42.8791 17.0274 42.8653 17.0258 42.8498 17.0258L42.8355 17.0251C42.4669 17.008 42.1169 16.9917 41.9036 17.0432C41.6874 17.0895 41.4888 17.188 41.3019 17.2865C40.8989 17.495 40.7119 17.5703 40.4841 17.4139C40.4374 17.3792 40.3907 17.3734 40.3381 17.3676C40.2973 17.3631 40.2975 17.2571 40.3381 17.2633C40.414 17.2749 40.4958 17.2807 40.5659 17.2807C40.6769 17.2807 40.782 17.2691 40.8697 17.2343C41.0528 16.9298 41.0126 16.5739 41.1917 16.2987C41.3232 16.0966 41.2811 15.1502 41.3019 14.9263C41.4322 13.5261 41.3014 13.1641 40.3439 12.7735C39.5904 12.6461 38.8544 12.6345 38.8311 12.6345L38.786 12.6358C38.6121 12.6409 38.3713 12.6479 38.1944 12.733C37.961 12.8426 37.4398 13.0651 37.0362 13.4695C36.9428 13.568 36.7156 14.4206 36.7799 14.5307C36.93 14.832 36.7747 15.1949 37.102 15.4963C37.121 15.5143 37.1399 15.5321 37.1587 15.5498C37.2679 15.6524 37.3745 15.7526 37.4642 15.8613C37.4642 15.8903 37.47 15.9135 37.4759 15.9366C37.4934 16.0815 37.435 16.3925 37.4642 16.52C35.5953 17.2209 35.1385 16.8578 33.6543 17.2343C32.187 17.7666 31.4378 18.4388 29.8859 19.1962C27.3333 19.9957 25.0418 20.7685 23.6029 21.8458C23.5678 21.8863 23.5445 21.9327 23.5211 21.979C23.4627 22.1007 23.4101 22.2224 23.3751 22.3498C23.3634 22.4019 23.3692 22.4541 23.3867 22.5004C23.3108 22.6974 23.2582 22.8654 23.2699 22.9291C23.2758 23.0276 23.3225 23.2246 23.5678 23.2941C23.5444 23.3984 23.5503 23.5143 23.6087 23.6185C23.6496 23.6881 23.7489 23.7923 23.9417 23.8097C23.9446 23.8126 23.946 23.8155 23.9475 23.8184C23.9481 23.8195 23.9502 23.8225 23.9517 23.8248C24.0102 24.0449 24.1987 24.2442 24.3914 24.3137L24.4323 24.4528C24.4615 24.557 24.5433 24.6324 24.6485 24.6613C25.2151 24.7946 25.5655 24.0878 25.7466 23.7054C25.7503 23.6945 25.7562 23.6859 25.7616 23.6781C25.7648 23.6735 25.7678 23.6692 25.77 23.6649C26.3358 23.636 26.4822 23.1391 26.5931 22.7628L26.5976 22.7478C26.7129 22.3647 26.8208 22.006 27.2712 21.8342C27.9314 21.531 28.6921 21.313 29.3972 21.2516C30.5726 21.1492 30.7721 21.0313 32.1182 20.5733C32.9906 20.2765 33.5886 20.1705 34.55 20.137L34.606 20.135C34.756 20.1297 34.9196 20.124 35.0926 20.1136C35.0926 20.1136 36.6927 23.6649 36.3719 25.2522C36.3207 25.5053 36.1324 25.7968 36.074 26.1734C36.065 26.2353 36.0527 26.3075 36.0422 26.369L36.0331 26.4225C36.0214 26.4428 36.0097 26.4616 35.998 26.4804C35.9924 26.4895 35.9867 26.4986 35.9811 26.5079C35.975 26.5178 35.969 26.5279 35.963 26.5383C35.5821 27.1995 35.0712 27.7619 35.1978 29.9332C35.1146 30.0158 34.9938 30.1306 34.8704 30.248C34.8035 30.3116 34.7356 30.3762 34.6721 30.4372C34.0412 31.0339 33.7089 31.5358 33.5687 31.7791C33.3949 32.0961 33.1785 32.4103 33.0886 32.773L33.0774 32.8183C32.8972 33.3225 32.8084 33.5604 32.5342 34.1102C31.8215 34.2956 31.0855 34.452 30.3729 34.6026C28.4628 35.0023 26.4943 35.4252 24.666 36.4391C24.6368 36.4391 24.6076 36.4333 24.5842 36.4275C24.2337 36.0509 23.7839 35.8192 23.34 35.6048L23.2555 35.5622C23.0117 35.4392 22.7797 35.3222 22.5806 35.1819C22.458 35.095 22.2886 35.1124 22.1893 35.2225C21.7337 35.7381 19.9404 40.5639 20.7757 42.0006C20.9042 42.2266 21.0853 42.3714 21.3131 42.4409C21.354 42.4757 21.4065 42.4931 21.465 42.4988H21.5175C21.5643 42.4988 21.5993 42.4931 21.6344 42.4873L21.6427 42.4867C21.7279 42.4811 21.8184 42.4751 21.9089 42.4583C22.0491 42.4293 22.1484 42.3019 22.1425 42.157C22.0958 41.3402 22.458 40.7956 22.8785 40.1642C23.0421 39.9266 23.2057 39.6717 23.3517 39.3994C26.3775 38.1017 30.7876 37.9569 34.012 37.8584C34.0996 37.8526 34.1756 37.8121 34.2281 37.7484L39.1114 31.5669L43.0601 32.8356C42.8154 34.6849 43.6286 36.2979 44.4153 37.8584L44.4211 37.87C45.163 39.3357 45.9282 40.8536 45.7938 42.5452C45.7938 42.5799 45.7997 42.6147 45.8055 42.6494C45.899 42.9391 46.0567 43.1303 46.2787 43.2172C46.3663 43.2578 46.4656 43.2752 46.5591 43.2752C46.8659 43.2752 47.1894 43.1052 47.481 42.9519L47.5053 42.9391L47.5488 42.9166L47.5884 42.896C47.714 42.8306 47.8289 42.7707 47.9201 42.7422C48.0016 42.7166 48.1171 42.6841 48.2525 42.6461C48.3007 42.6325 48.3516 42.6182 48.4049 42.6031C50.7064 41.9717 52.1608 41.4329 52.301 40.7261C52.3536 40.4712 52.2543 40.2974 52.1667 40.1931L52.1608 40.1989C51.822 39.8108 51.0276 39.8281 50.0288 39.8803C49.7834 39.8977 49.5439 39.9093 49.4388 39.8977C48.3173 39.776 47.6631 38.9476 47.225 37.7947C47.2187 37.7481 47.2108 37.7049 47.2029 37.6623C47.1962 37.6254 47.1895 37.589 47.1841 37.5514C47.1693 37.4676 47.1552 37.385 47.1414 37.304C47.117 37.161 47.0933 37.0219 47.0672 36.8852C47.0322 36.665 46.9913 36.4565 46.9504 36.2537C46.9154 36.0741 46.8803 35.9003 46.8453 35.7265C46.8261 35.6282 46.8051 35.5315 46.7843 35.4357C46.7672 35.3567 46.7501 35.2777 46.7343 35.1993C46.7133 35.1135 46.6935 35.0277 46.6738 34.9424C46.6497 34.8377 46.6257 34.7337 46.5999 34.6316L46.5854 34.5762L46.5648 34.4968C46.5415 34.4067 46.5181 34.3167 46.4948 34.2318C46.4807 34.1816 46.467 34.1315 46.4533 34.0819C46.4104 33.9261 46.3682 33.7728 46.3196 33.6235C46.31 33.5981 46.3021 33.5692 46.2941 33.5397C46.2875 33.5154 46.2807 33.4907 46.2728 33.4671C46.0567 32.2679 45.8055 31.173 45.3441 30.4025C44.7015 29.3365 43.2646 28.5776 41.997 27.9114C41.5589 27.6796 41.1384 27.4537 40.7762 27.2335C41.6465 25.0495 41.8805 22.1947 41.5826 20.3814C45.4787 18.429 45.7997 18.6653 46.6817 16.487L46.6912 16.4639C46.97 15.7841 47.3191 14.9329 47.8909 13.7873C47.9726 13.741 48.0719 13.6715 48.1245 13.5556C48.1596 13.4803 48.1596 13.3934 48.1245 13.3181C48.3114 13.1674 48.5217 12.9705 48.5276 12.7098C48.5276 12.5649 48.4633 12.4317 48.3406 12.3332C48.2647 12.2695 48.1596 12.2637 48.0661 12.2927C48.0135 12.2231 47.9259 12.171 47.8266 12.1594C47.8112 12.1556 47.7933 12.1568 47.7745 12.1581C47.7648 12.1587 47.7548 12.1594 47.7448 12.1594C47.7331 12.0783 47.6981 12.003 47.628 11.9567C47.4586 11.8408 47.2892 11.8002 47.1315 11.8234C46.8628 11.5685 46.2495 11.2499 45.8114 11.3542C45.6945 11.3831 45.5952 11.4411 45.5193 11.5222L45.4741 11.4973C45.3781 11.4446 45.2654 11.3826 45.1396 11.3078C44.5879 10.9865 43.7852 10.4759 42.9992 9.97585C42.8785 9.89907 42.7573 9.82194 42.6384 9.7464C39.9397 8.02 39.414 7.72454 39.157 7.76509C38.9 7.80565 38.8065 8.05476 38.7481 8.23435H38.6546C38.3742 8.24014 38.1523 8.25173 38.0004 8.29808C36.9868 8.59965 35.983 8.94471 35.0067 9.2803L34.7293 9.37563C34.1919 9.55522 33.6603 9.7406 33.1288 9.92599C30.0738 10.9572 27.0948 11.774 23.7535 11.4207C23.7185 11.4149 23.6835 11.4207 23.6484 11.4264L16.8959 13.2224C16.7615 13.2629 16.6739 13.3904 16.6856 13.5294C16.6915 13.6684 16.8024 13.7785 16.9426 13.7901C19.7398 14.0971 21.8564 14.3818 23.5629 14.6113L23.6601 14.6243C27.5095 15.1457 29.0925 15.3601 31.0727 14.8039C31.3822 14.7866 31.686 14.7692 31.9839 14.7402C32.0306 14.7344 32.0774 14.7228 32.1182 14.6939L32.9419 14.1667C32.9769 14.1435 33.0134 14.1203 33.0499 14.0972C33.0864 14.074 33.1229 14.0508 33.158 14.0276C34.116 13.6105 35.2608 13.0544 36.7445 12.3302L36.7799 12.313C37.0901 12.1619 37.4117 12.0053 37.7492 11.8436C38.7364 11.3627 39.8638 10.8182 41.1605 10.2099Z" fill="#F9F9F9"/>
</g>
<defs>
<clipPath id="clip0_356_10877">
<rect width="36.8" height="36.4977" fill="white" transform="translate(16.1001 7.39425)"/>
</clipPath>
</defs>
</svg>
