<svg width="242" height="246" viewBox="0 0 242 246" fill="none" xmlns="http://www.w3.org/2000/svg">
<path d="M121 133.291C141.228 133.291 159.804 138.802 174.438 148L202 119.819L121 37L40 119.819L67.5616 148C82.1956 138.802 100.772 133.291 121 133.291Z" fill="#FF5900"/>
<path d="M70 151.423L121 205L172 151.423C158.034 142.403 140.305 137 121 137C101.695 137 83.9662 142.403 70 151.423Z" fill="#FF5900"/>
<path fill-rule="evenodd" clip-rule="evenodd" d="M98.6761 96.8559C98.6725 96.8508 98.6678 96.844 98.6665 96.8414L98.6761 96.8559Z" fill="#F9F9F9"/>
<path d="M137.389 64.3803L145.571 69.1761L146.839 69.9192C147.034 70.4971 147.564 71.0888 148.038 71.6117C148.12 71.6925 148.209 71.7956 148.289 71.8882C148.318 71.9218 148.346 71.954 148.372 71.9832C147.982 72.8914 146.379 76.0288 146.101 76.3866C145.679 76.8272 145.138 77.2813 144.568 77.7604L144.391 77.9091L144.303 77.9828C143.286 78.8222 142.255 79.6754 141.6 80.5835C141.574 80.5835 141.547 80.5805 141.519 80.5772C141.488 80.5736 141.456 80.5698 141.419 80.5698L141.385 80.5682C140.505 80.5275 139.67 80.4888 139.161 80.6111C138.646 80.7212 138.172 80.9551 137.726 81.189C136.765 81.6844 136.319 81.8633 135.775 81.4917C135.664 81.4092 135.552 81.3954 135.427 81.3817C135.329 81.371 135.33 81.1193 135.427 81.134C135.608 81.1615 135.803 81.1753 135.97 81.1753C136.235 81.1753 136.486 81.1477 136.695 81.0652C137.132 80.3418 137.036 79.4964 137.463 78.8427C137.777 78.3628 137.676 76.1147 137.726 75.583C138.037 72.2571 137.725 71.3975 135.441 70.4696C133.643 70.1669 131.887 70.1393 131.832 70.1393L131.724 70.1426C131.309 70.1546 130.735 70.1712 130.313 70.3733C129.756 70.6336 128.513 71.1621 127.55 72.1228C127.327 72.3567 126.785 74.3819 126.939 74.6433C127.297 75.3591 126.926 76.2209 127.707 76.937C127.752 76.9796 127.797 77.0218 127.842 77.0639C128.103 77.3076 128.357 77.5458 128.571 77.8039C128.571 77.8727 128.585 77.9278 128.599 77.9828C128.641 78.3268 128.501 79.0656 128.571 79.3684C124.113 81.0334 123.023 80.1707 119.482 81.0652C115.982 82.3293 114.195 83.926 110.493 85.7251C104.403 87.6241 98.9366 89.4598 95.504 92.0185C95.4204 92.1148 95.3646 92.2249 95.3089 92.335C95.1696 92.624 95.0441 92.913 94.9605 93.2157C94.9327 93.3395 94.9466 93.4634 94.9884 93.5735C94.8072 94.0413 94.6818 94.4404 94.7097 94.5917C94.7236 94.8257 94.8351 95.2935 95.4204 95.4586C95.3646 95.7063 95.3786 95.9815 95.5179 96.2292C95.6155 96.3944 95.8523 96.642 96.3122 96.6833C96.3192 96.6902 96.3226 96.6971 96.3261 96.704C96.3275 96.7067 96.3325 96.7138 96.3362 96.7191C96.4756 97.242 96.9253 97.7154 97.3852 97.8805L97.4827 98.2107C97.5524 98.4584 97.7475 98.6373 97.9983 98.7061C99.35 99.0226 100.186 97.3438 100.618 96.4356C100.627 96.4097 100.641 96.3892 100.654 96.3708C100.661 96.3598 100.669 96.3496 100.674 96.3393C102.023 96.2706 102.373 95.0905 102.637 94.1966L102.648 94.1611C102.923 93.251 103.18 92.3991 104.255 91.991C105.83 91.2709 107.645 90.7531 109.327 90.6072C112.131 90.3639 112.607 90.084 115.818 88.996C117.899 88.2911 119.326 88.0393 121.619 87.9596L121.753 87.9549C122.11 87.9425 122.501 87.9288 122.913 87.9041C122.913 87.9041 126.73 96.3393 125.965 100.11C125.843 100.711 125.394 101.403 125.255 102.298C125.233 102.445 125.204 102.616 125.179 102.762L125.157 102.889C125.129 102.937 125.101 102.982 125.073 103.027C125.06 103.049 125.046 103.07 125.033 103.092C125.019 103.116 125.004 103.14 124.99 103.165C124.081 104.735 122.862 106.071 123.164 111.228C122.966 111.424 122.678 111.697 122.383 111.976C122.224 112.127 122.062 112.28 121.91 112.425C120.405 113.843 119.613 115.035 119.278 115.613C118.863 116.366 118.347 117.112 118.133 117.973L118.106 118.081C117.676 119.279 117.464 119.844 116.81 121.15C115.11 121.59 113.354 121.961 111.654 122.319C107.098 123.269 102.402 124.273 98.0401 126.681C97.9704 126.681 97.9007 126.667 97.845 126.654C97.0089 125.759 95.936 125.209 94.8769 124.7L94.6753 124.598C94.0937 124.306 93.5403 124.028 93.0654 123.695C92.7728 123.489 92.3687 123.53 92.1318 123.792C91.0449 125.016 86.7669 136.479 88.7596 139.891C89.0662 140.428 89.4981 140.772 90.0416 140.937C90.1391 141.02 90.2645 141.061 90.4039 141.075H90.5293C90.6408 141.075 90.7244 141.061 90.808 141.047L90.828 141.046C91.0312 141.033 91.2471 141.018 91.4629 140.978C91.7974 140.91 92.0342 140.607 92.0203 140.263C91.9088 138.323 92.7728 137.029 93.7761 135.529C94.1663 134.965 94.5564 134.36 94.9048 133.713C102.123 130.63 112.644 130.286 120.336 130.053C120.545 130.039 120.726 129.942 120.851 129.791L132.501 115.109L141.92 118.122C141.337 122.515 143.276 126.346 145.153 130.053L145.167 130.08C146.937 133.561 148.762 137.167 148.442 141.185C148.442 141.267 148.456 141.35 148.47 141.432C148.693 142.12 149.069 142.575 149.598 142.781C149.807 142.877 150.044 142.919 150.267 142.919C150.999 142.919 151.771 142.515 152.467 142.151L152.525 142.12L152.628 142.067L152.723 142.018C153.022 141.863 153.296 141.72 153.514 141.653C153.709 141.592 153.984 141.515 154.307 141.424C154.422 141.392 154.543 141.358 154.671 141.322C160.161 139.822 163.631 138.543 163.965 136.864C164.09 136.259 163.854 135.846 163.645 135.598L163.631 135.612C162.822 134.69 160.927 134.731 158.544 134.855C157.959 134.896 157.388 134.924 157.137 134.896C154.462 134.607 152.901 132.64 151.856 129.901C151.841 129.791 151.822 129.688 151.803 129.587C151.787 129.499 151.771 129.413 151.758 129.323C151.723 129.124 151.689 128.928 151.657 128.736C151.598 128.396 151.542 128.066 151.48 127.741C151.396 127.218 151.298 126.722 151.201 126.241C151.117 125.814 151.034 125.401 150.95 124.989C150.904 124.755 150.854 124.525 150.805 124.298C150.764 124.11 150.723 123.923 150.685 123.736C150.635 123.533 150.588 123.329 150.541 123.126C150.483 122.878 150.426 122.631 150.365 122.388L150.33 122.256L150.281 122.068C150.225 121.854 150.17 121.64 150.114 121.438C150.08 121.319 150.048 121.2 150.015 121.082C149.913 120.712 149.812 120.348 149.696 119.994C149.673 119.933 149.654 119.865 149.635 119.795C149.619 119.737 149.603 119.678 149.584 119.622C149.069 116.774 148.47 114.173 147.369 112.343C145.836 109.811 142.408 108.008 139.384 106.426C138.339 105.875 137.336 105.339 136.472 104.816C138.548 99.6281 139.106 92.8472 138.396 88.5402C147.69 83.9029 148.456 84.464 150.56 79.2901L150.583 79.2352C151.248 77.6205 152.08 75.5987 153.444 72.8777C153.639 72.7676 153.876 72.6025 154.002 72.3272C154.085 72.1484 154.085 71.942 154.002 71.7631C154.448 71.4053 154.949 70.9374 154.963 70.3182C154.963 69.9742 154.81 69.6577 154.517 69.4238C154.336 69.2724 154.085 69.2587 153.862 69.3275C153.737 69.1623 153.528 69.0385 153.291 69.011C153.254 69.0019 153.212 69.0048 153.167 69.0078C153.144 69.0094 153.12 69.011 153.096 69.011C153.068 68.8183 152.985 68.6394 152.817 68.5294C152.413 68.2541 152.009 68.1578 151.633 68.2129C150.992 67.6074 149.529 66.8506 148.484 67.0983C148.205 67.1671 147.968 67.3047 147.787 67.4973L147.679 67.4383C147.45 67.313 147.181 67.1659 146.881 66.9882C145.565 66.225 143.65 65.0121 141.775 63.8244C141.487 63.6421 141.198 63.4589 140.914 63.2794C134.476 59.1788 133.222 58.477 132.609 58.5734C131.996 58.6697 131.773 59.2614 131.634 59.688H131.411C130.742 59.7017 130.212 59.7292 129.85 59.8393C127.432 60.5556 125.038 61.3752 122.709 62.1724L122.047 62.3988C120.765 62.8254 119.497 63.2657 118.229 63.706C110.941 66.1554 103.834 68.0956 95.8635 67.2562C95.7799 67.2425 95.6963 67.2562 95.6126 67.27L79.5041 71.5357C79.1836 71.6321 78.9746 71.9348 79.0025 72.265C79.0164 72.5953 79.2812 72.8568 79.6156 72.8843C86.2885 73.6134 91.3378 74.2896 95.4087 74.8347L95.6405 74.8658C104.823 76.1042 108.6 76.6134 113.324 75.2924C114.062 75.2511 114.787 75.2098 115.497 75.141C115.609 75.1272 115.72 75.0997 115.818 75.0309L117.783 73.7787C117.866 73.7237 117.953 73.6686 118.04 73.6136C118.128 73.5585 118.215 73.5035 118.298 73.4485C120.584 72.4577 123.315 71.1367 126.854 69.4166L126.939 69.3757C127.679 69.017 128.446 68.645 129.251 68.2607C131.606 67.1186 134.295 65.8251 137.389 64.3803Z" fill="#F9F9F9"/>
</svg>
