<svg width="18" height="25" viewBox="0 0 18 25" fill="none" xmlns="http://www.w3.org/2000/svg">
<path d="M9 0C13.9706 0 18 4.02944 18 9C18 11.5362 16.9496 13.826 15.2617 15.4619L10.7324 23.3076C9.96262 24.641 8.03738 24.641 7.26758 23.3076L2.73633 15.46C1.04962 13.8242 0 11.5352 0 9C0 4.02944 4.02944 0 9 0ZM9 4.1543C6.3236 4.1543 4.1544 6.32363 4.1543 9C4.1543 11.6765 6.32354 13.8467 9 13.8467C11.6765 13.8467 13.8457 11.6765 13.8457 9C13.8456 6.32363 11.6764 4.1543 9 4.1543Z" fill="#FF5900"/>
</svg>
